<?xml version="1.0" encoding="UTF-8"?>
<svg width="25px" height="21px" viewBox="0 0 25 21" version="1.1" xmlns="http://www.w3.org/2000/svg" xmlns:xlink="http://www.w3.org/1999/xlink">
    <!-- Generator: Sketch 42 (36781) - http://www.bohemiancoding.com/sketch -->
    <title>shopping-basket</title>
    <desc>Created with Sketch.</desc>
    <defs>
        <linearGradient x1="50%" y1="0%" x2="50%" y2="97.6223693%" id="linearGradient-1">
            <stop stop-color="#EE4DB7" offset="0%"></stop>
            <stop stop-color="#C743F9" offset="100%"></stop>
        </linearGradient>
    </defs>
    <g id="Page-1" stroke="none" stroke-width="1" fill="none" fill-rule="evenodd">
        <g id="Filled" transform="translate(-200.000000, -352.000000)" fill="url(#linearGradient-1)">
            <g id="shopping-basket" transform="translate(200.000000, 352.000000)">
                <path d="M16.5735,17 L13.0005,17 L13.0005,21 L15.9025,21 L16.5735,17 Z M13.0005,13 L13.0005,16 L16.7415,16 L17.2445,13 L13.0005,13 Z M17.5885,17 L16.9175,21 L20.5005,21 C20.7155,21 20.9065,20.862 20.9745,20.658 L22.1945,17 L17.5885,17 Z M18.0835,8 L13.0005,8 L13.0005,12 L17.4125,12 L18.0835,8 Z M12.0005,17 L8.4275,17 L9.0975,21 L12.0005,21 L12.0005,17 Z M7.4125,17 L2.8055,17 L4.0255,20.658 C4.0945,20.862 4.2855,21 4.5005,21 L8.0835,21 L7.4125,17 Z M1.1395,12 L6.5735,12 L5.9025,8 L5.7075,8 L12.5005,1.207 L19.2935,8 L19.0975,8 L18.4275,12 L23.8605,12 L24.9745,8.658 C25.0255,8.506 25.0005,8.338 24.9055,8.208 C24.8115,8.077 24.6615,8 24.5005,8 L20.7075,8 L12.8535,0.146 C12.6585,-0.049 12.3425,-0.049 12.1465,0.146 L4.2935,8 L0.5005,8 C0.3395,8 0.1885,8.077 0.0945,8.208 C0.0005,8.338 -0.0255,8.506 0.0255,8.658 L1.1395,12 Z M17.7565,16 L22.5275,16 L23.5275,13 L18.2595,13 L17.7565,16 Z M6.7415,13 L1.4725,13 L2.4725,16 L7.2445,16 L6.7415,13 Z M12.0005,16 L12.0005,13 L7.7565,13 L8.2595,16 L12.0005,16 Z M7.5885,12 L6.9175,8 L12.0005,8 L12.0005,12 L7.5885,12 Z" id="Fill-1"></path>
            </g>
        </g>
    </g>
</svg>